<?xml version="1.0" encoding="utf-8"?>
<!-- Generator: Adobe Illustrator 27.7.0, SVG Export Plug-In . SVG Version: 6.00 Build 0)  -->
<svg version="1.1" id="Layer_1" xmlns="http://www.w3.org/2000/svg" xmlns:xlink="http://www.w3.org/1999/xlink" x="0px" y="0px"
	 viewBox="0 0 1366 768" style="enable-background:new 0 0 1366 768;" xml:space="preserve">
<style type="text/css">
	.st0{fill:#ED1C24;}
	.st1{fill:none;}
</style>
<g>
	<path d="M895.89,364.15v80.99l-22.55,22.55h-22.73v-0.01h-22.72l-11.28-11.27l-11.27,11.27h-18.73v0.01h-26.72l-11.27-11.27
		l-11.28,11.27H458.29c-12.45,0-22.55-10.1-22.55-22.55h57.6v-22.55h-57.6v-22.55h57.6l22.55,22.55v22.55h221.45v-80.99h22.55v80.99
		h45.45v-37.1h22.55v37.1h45.45v-80.99H895.89z"/>
	
		<rect x="805.34" y="464.43" transform="matrix(0.7319 -0.6814 0.6814 0.7319 -105.2323 683.9329)" class="st0" width="22.55" height="22.55"/>
	<path d="M910.37,365.15h22.55v80.64c0,12.45-10.1,22.55-22.55,22.55h0V365.15z"/>
	<polygon points="851.6,249.03 851.6,294.13 829.05,316.68 811.57,316.68 800.3,305.41 789.02,316.68 771.54,316.68 760.27,305.41 
		748.99,316.68 726.27,316.68 511.13,317.41 511.12,317.41 489.4,317.48 488.91,317.48 433.08,317.67 433.08,294.13 566,294.13 
		566,274.65 511.23,274.65 511.23,274.4 532.52,253.11 566,253.11 587.54,274.65 587.54,294.13 748.99,294.13 748.99,249.03 
		771.54,249.03 771.54,294.13 789.02,294.13 789.02,249.03 811.57,249.03 811.57,294.13 829.05,294.13 829.05,249.03 	"/>
	<path d="M932.74,339.24l-22.55,14.55h-477.1v-22.55h477.1v-14.55h-22.55l-22.55-22.55v-22.55l22.55-22.55h45.1V339.24z
		 M910.19,294.14v-22.55h-22.55v22.55H910.19z"/>
	<line class="st1" x1="433.08" y1="215.71" x2="433.08" y2="184.35"/>
	<path d="M529.32,468.33"/>
	<path d="M932.92,468.33"/>
	<path d="M510.98,274.65h0.25v-0.25L510.98,274.65z"/>
	<g>
		<g>
			<path class="st0" d="M932.87,238.69H511.31l-0.08,35.71v0.25l-0.05,19.48l-0.01,2.06l-0.01,5.94l-0.02,11.6l-0.01,3.68v0.32
				h-0.01l-0.04,13.5v0.01l-0.06,22.54l-0.02-0.1h-22l-0.02,0.1l-0.04-22.54v-0.01l-0.03-13.75l-0.01-4.18v-0.04l-0.02-11.13
				l-0.01-5.94l-0.01-2.06l-0.1-55.44l-55.68-0.07c0-12.63,10.28-22.84,22.91-22.76l33.44,0.21v0.02l25.55,0.12v0.03l398.11,2.54
				c5.47,0.04,10.41,2.28,13.99,5.88C930.66,228.26,932.87,233.22,932.87,238.69z"/>
		</g>
	</g>
	<line class="st1" x1="575.94" y1="238.69" x2="514.98" y2="238.66"/>
	<line class="st1" x1="485.43" y1="238.65" x2="433.08" y2="238.62"/>
</g>
<g>
	<path d="M475.47,510h-5.4v5.24h5v1.09h-5v6.24h-1.2v-13.66h6.6V510z"/>
	<path d="M496.36,522.81c-1.93,0-3.47-0.64-4.63-1.92c-1.15-1.28-1.73-2.95-1.73-4.99c0-2.18,0.59-3.93,1.77-5.24
		c1.18-1.31,2.79-1.97,4.83-1.97c1.86,0,3.36,0.63,4.51,1.9s1.72,2.92,1.72,4.97c0,2.25-0.59,4.02-1.76,5.32
		C499.9,522.16,498.33,522.81,496.36,522.81z M496.36,521.7c1.61,0,2.89-0.52,3.82-1.57s1.4-2.52,1.4-4.41
		c0-1.88-0.46-3.34-1.37-4.38c-0.91-1.04-2.16-1.56-3.75-1.56c-1.52,0-2.77,0.55-3.74,1.65s-1.46,2.55-1.46,4.34
		c0,1.8,0.47,3.24,1.4,4.32C493.59,521.16,494.82,521.7,496.36,521.7z"/>
	<path d="M527.07,522.57h-1.41l-2.03-3.95c-0.41-0.78-0.8-1.3-1.17-1.57s-0.81-0.39-1.35-0.37h-1.65v5.89h-1.2v-13.66h3.81
		c1.18,0,2.15,0.31,2.9,0.94c0.75,0.63,1.12,1.52,1.12,2.68c0,0.95-0.26,1.75-0.79,2.42c-0.52,0.67-1.26,1.12-2.21,1.37v0.04
		c0.3,0.13,0.58,0.33,0.83,0.61c0.26,0.28,0.52,0.66,0.79,1.15L527.07,522.57z M519.47,510.01v5.57h2.29c0.92,0,1.67-0.26,2.23-0.79
		s0.85-1.25,0.85-2.16c0-0.82-0.25-1.46-0.76-1.92c-0.51-0.46-1.24-0.7-2.19-0.7H519.47z"/>
	<path d="M573.16,522.57h-1.18v-9.48c0-0.22,0.01-0.51,0.03-0.9c0.02-0.38,0.05-0.84,0.09-1.38h-0.04
		c-0.09,0.28-0.17,0.52-0.25,0.73s-0.15,0.38-0.21,0.52l-4.79,10.51h-0.5l-4.78-10.44c-0.08-0.17-0.15-0.37-0.22-0.59
		c-0.07-0.22-0.14-0.47-0.21-0.75h-0.05c0.03,0.29,0.05,0.61,0.06,0.97c0.01,0.36,0.01,0.76,0.01,1.19v9.61h-1.18v-13.66h1.37
		l4.73,10.41c0.11,0.22,0.21,0.45,0.29,0.68c0.09,0.23,0.16,0.45,0.22,0.66h0.06c0.1-0.29,0.19-0.55,0.28-0.78
		c0.08-0.23,0.17-0.43,0.25-0.62l4.72-10.35h1.31V522.57z"/>
	<path d="M594.93,522.81c-1.93,0-3.47-0.64-4.63-1.92c-1.15-1.28-1.73-2.95-1.73-4.99c0-2.18,0.59-3.93,1.77-5.24
		c1.18-1.31,2.79-1.97,4.83-1.97c1.86,0,3.36,0.63,4.51,1.9s1.72,2.92,1.72,4.97c0,2.25-0.59,4.02-1.76,5.32
		C598.47,522.16,596.9,522.81,594.93,522.81z M594.93,521.7c1.61,0,2.89-0.52,3.82-1.57s1.4-2.52,1.4-4.41
		c0-1.88-0.46-3.34-1.37-4.38c-0.91-1.04-2.16-1.56-3.75-1.56c-1.52,0-2.77,0.55-3.74,1.65s-1.46,2.55-1.46,4.34
		c0,1.8,0.47,3.24,1.4,4.32C592.16,521.16,593.4,521.7,594.93,521.7z"/>
	<path d="M616.84,522.57v-13.66h3.71c1.14,0,2.04,0.29,2.71,0.86c0.67,0.57,1,1.33,1,2.29c0,0.77-0.2,1.44-0.61,2.02
		c-0.41,0.58-0.97,1-1.7,1.26v0.04c0.9,0.11,1.61,0.46,2.13,1.05c0.52,0.59,0.79,1.33,0.79,2.23c0,1.16-0.39,2.1-1.17,2.83
		c-0.78,0.72-1.8,1.09-3.06,1.09H616.84z M618.04,510v4.93h1.85c0.95,0,1.7-0.24,2.26-0.71c0.56-0.47,0.84-1.12,0.84-1.95
		c0-0.76-0.24-1.33-0.71-1.71c-0.47-0.38-1.19-0.57-2.14-0.57H618.04z M618.04,516.03v5.44h2.39c1.02,0,1.81-0.24,2.35-0.73
		c0.55-0.49,0.82-1.17,0.82-2.05s-0.3-1.55-0.89-1.99c-0.59-0.45-1.49-0.67-2.68-0.67H618.04z"/>
	<path d="M641.56,522.57h-1.2v-13.66h1.2V522.57z"/>
	<path d="M664.46,522.57h-6.68v-13.66h1.2v12.57h5.48V522.57z"/>
	<path d="M686.4,522.57h-6.91v-13.66h6.6v1.1h-5.4v5.11h5.01v1.1h-5.01v5.27h5.71V522.57z"/>
	<path d="M718.82,521.46l0.64-0.9c0.53,0.39,1.07,0.68,1.62,0.87s1.18,0.28,1.87,0.28c0.88,0,1.6-0.24,2.16-0.72
		c0.56-0.48,0.85-1.14,0.85-1.99c0-0.69-0.23-1.25-0.68-1.69s-1.18-0.84-2.2-1.19c-1.3-0.44-2.24-0.96-2.83-1.55
		c-0.59-0.59-0.89-1.34-0.89-2.25c0-1.11,0.38-1.99,1.13-2.65s1.76-1,3.01-1c0.56,0,1.11,0.07,1.65,0.22
		c0.54,0.15,1.08,0.39,1.63,0.71l-0.58,0.93c-0.45-0.27-0.89-0.46-1.34-0.59s-0.94-0.19-1.48-0.19c-0.83,0-1.51,0.22-2.03,0.65
		c-0.52,0.43-0.79,1.03-0.79,1.79c0,0.65,0.23,1.18,0.7,1.61c0.47,0.42,1.24,0.82,2.31,1.2c1.28,0.43,2.19,0.95,2.75,1.54
		c0.56,0.6,0.84,1.37,0.84,2.32c0,1.17-0.38,2.12-1.14,2.85c-0.76,0.72-1.8,1.09-3.13,1.09c-0.78,0-1.5-0.11-2.16-0.32
		S719.44,521.93,718.82,521.46z"/>
	<path d="M749.43,522.57h-6.91v-13.66h6.6v1.1h-5.4v5.11h5.01v1.1h-5.01v5.27h5.71V522.57z"/>
	<path d="M773.8,522.57h-1.41l-2.03-3.95c-0.41-0.78-0.8-1.3-1.17-1.57s-0.81-0.39-1.35-0.37h-1.65v5.89H765v-13.66h3.81
		c1.18,0,2.15,0.31,2.9,0.94c0.75,0.63,1.12,1.52,1.12,2.68c0,0.95-0.26,1.75-0.79,2.42c-0.52,0.67-1.26,1.12-2.21,1.37v0.04
		c0.3,0.13,0.58,0.33,0.83,0.61c0.26,0.28,0.52,0.66,0.79,1.15L773.8,522.57z M766.2,510.01v5.57h2.29c0.92,0,1.67-0.26,2.23-0.79
		s0.85-1.25,0.85-2.16c0-0.82-0.25-1.46-0.76-1.92c-0.51-0.46-1.24-0.7-2.19-0.7H766.2z"/>
	<path d="M798.69,508.91l-5.22,13.66h-1.12l-4.98-13.66h1.35l3.89,10.94c0.07,0.2,0.13,0.41,0.19,0.62c0.05,0.21,0.1,0.42,0.14,0.63
		h0.03c0.03-0.17,0.08-0.37,0.14-0.58s0.14-0.45,0.23-0.7l4.06-10.92H798.69z"/>
	<path d="M814.63,522.57h-1.2v-13.66h1.2V522.57z"/>
	<path d="M840.24,521.98c-0.62,0.29-1.23,0.5-1.83,0.63s-1.24,0.2-1.93,0.2c-1.94,0-3.5-0.63-4.66-1.88
		c-1.17-1.25-1.75-2.89-1.75-4.92c0-2.22,0.64-4,1.93-5.33c1.29-1.33,2.93-2,4.94-2c0.58,0,1.13,0.05,1.66,0.15s1.07,0.27,1.62,0.5
		l-0.43,1.02c-0.49-0.21-0.96-0.36-1.42-0.45c-0.46-0.09-0.95-0.13-1.48-0.13c-1.66,0-3,0.56-4.02,1.67
		c-1.03,1.11-1.54,2.6-1.54,4.47c0,1.79,0.49,3.21,1.46,4.24s2.23,1.56,3.77,1.56c0.57,0,1.11-0.06,1.63-0.18
		c0.52-0.12,1.05-0.31,1.58-0.55L840.24,521.98z"/>
	<path d="M862.58,522.57h-6.91v-13.66h6.6v1.1h-5.4v5.11h5.01v1.1h-5.01v5.27h5.71V522.57z"/>
	<path d="M877.17,521.46l0.64-0.9c0.53,0.39,1.07,0.68,1.62,0.87s1.18,0.28,1.87,0.28c0.88,0,1.6-0.24,2.16-0.72
		c0.56-0.48,0.85-1.14,0.85-1.99c0-0.69-0.23-1.25-0.68-1.69s-1.18-0.84-2.2-1.19c-1.3-0.44-2.24-0.96-2.83-1.55
		c-0.59-0.59-0.89-1.34-0.89-2.25c0-1.11,0.38-1.99,1.13-2.65s1.76-1,3.01-1c0.56,0,1.11,0.07,1.65,0.22
		c0.54,0.15,1.08,0.39,1.63,0.71l-0.58,0.93c-0.45-0.27-0.89-0.46-1.34-0.59s-0.94-0.19-1.48-0.19c-0.83,0-1.51,0.22-2.03,0.65
		c-0.52,0.43-0.79,1.03-0.79,1.79c0,0.65,0.23,1.18,0.7,1.61c0.47,0.42,1.24,0.82,2.31,1.2c1.28,0.43,2.19,0.95,2.75,1.54
		c0.56,0.6,0.84,1.37,0.84,2.32c0,1.17-0.38,2.12-1.14,2.85c-0.76,0.72-1.8,1.09-3.13,1.09c-0.78,0-1.5-0.11-2.16-0.32
		S877.78,521.93,877.17,521.46z"/>
</g>
</svg>
